<svg width="136" height="50" viewBox="0 0 136 50" fill="none" xmlns="http://www.w3.org/2000/svg">
<path d="M67.738 15.4451L74.2053 15.0298C74.3463 16.1053 74.6317 16.9241 75.0614 17.4861C75.7633 18.3972 76.7637 18.8527 78.0626 18.8527C79.0318 18.8527 79.7796 18.6203 80.3061 18.1556C80.5471 17.9626 80.743 17.7169 80.8792 17.4365C81.0154 17.156 81.0885 16.8479 81.0933 16.5348C81.0893 16.2346 81.0211 15.9389 80.8936 15.6685C80.7662 15.3981 80.5824 15.1595 80.3553 14.9694C79.8633 14.5097 78.703 14.0743 76.8744 13.6632C73.8929 12.9787 71.7666 12.0676 70.4957 10.93C69.8772 10.4 69.3833 9.73431 69.0507 8.98231C68.7181 8.23031 68.5553 7.41132 68.5744 6.58615C68.5791 5.42003 68.9215 4.28151 69.5584 3.31439C70.2858 2.22437 71.3132 1.37995 72.5104 0.888257C73.8224 0.299341 75.6264 0.00488281 77.9223 0.00488281C80.7333 0.00488281 82.8767 0.540109 84.3527 1.61056C85.8287 2.68101 86.7069 4.38233 86.9874 6.7145L80.5791 7.09705C80.4151 6.09035 80.0576 5.35379 79.5066 4.88735C78.9555 4.42092 78.2011 4.18854 77.2434 4.19022C76.4537 4.19022 75.8584 4.36387 75.4599 4.70615C75.2717 4.85423 75.1195 5.04491 75.0154 5.26323C74.9112 5.48156 74.8579 5.72159 74.8597 5.96451C74.8656 6.15303 74.913 6.33775 74.9981 6.50504C75.0833 6.67232 75.2041 6.81787 75.3517 6.93094C75.6715 7.22792 76.4316 7.50476 77.6321 7.76146C80.6037 8.41582 82.7357 9.07856 84.028 9.74969C85.3203 10.4208 86.2551 11.2522 86.8324 12.2438C87.4215 13.2497 87.7256 14.4034 87.7106 15.5759C87.7177 16.9957 87.3109 18.3854 86.5421 19.5675C85.742 20.8 84.6037 21.7631 83.2703 22.3359C81.8681 22.9651 80.1019 23.2797 77.9715 23.2797C74.2307 23.2797 71.6395 22.5431 70.198 21.07C68.7564 19.5968 67.9365 17.7219 67.738 15.4451V15.4451ZM1.54241 22.9022V0.38491H12.8731C14.9739 0.38491 16.5794 0.568632 17.6897 0.936075C18.7834 1.29344 19.7289 2.01452 20.376 2.9847C21.0804 4.06154 21.439 5.3363 21.4018 6.63145C21.4304 7.76167 21.1583 8.8786 20.6146 9.86294C20.093 10.7754 19.3542 11.5382 18.4671 12.0802C17.7213 12.5011 16.9164 12.8016 16.0809 12.9711C16.706 13.1595 17.3016 13.4383 17.8496 13.7991C18.2569 14.1454 18.6234 14.539 18.9418 14.9719C19.3001 15.4022 19.6173 15.8665 19.8889 16.3586L23.1804 22.9022H15.4979L11.8669 16.0138C11.4061 15.1229 10.9961 14.5441 10.637 14.2773C10.1475 13.9303 9.56449 13.7482 8.96909 13.7563H8.36393V22.9022H1.54241ZM8.36393 9.50305H11.2372C11.8453 9.4566 12.448 9.35383 13.0379 9.196C13.4787 9.10947 13.8719 8.85717 14.14 8.4888C14.4234 8.1167 14.5744 7.65685 14.568 7.18513C14.5865 6.87196 14.5352 6.55859 14.418 6.26866C14.3008 5.97874 14.1208 5.71984 13.8915 5.5115C13.4422 5.12225 12.5967 4.92762 11.3553 4.92762H8.36393V9.50305ZM0 42.1703L6.46729 41.7575C6.60833 42.833 6.89369 43.6518 7.32336 44.2139C8.01708 45.1249 9.01993 45.5805 10.3319 45.5805C11.3011 45.5805 12.049 45.3472 12.5754 44.8808C12.8165 44.6878 13.0123 44.4421 13.1485 44.1617C13.2847 43.8812 13.3579 43.5732 13.3626 43.26C13.3583 42.9599 13.29 42.6643 13.1625 42.394C13.0351 42.1236 12.8515 41.8849 12.6246 41.6946C12.1326 41.2349 10.9723 40.8003 9.14375 40.391C6.16225 39.703 4.03601 38.792 2.76502 37.6578C2.14661 37.1271 1.65283 36.461 1.32025 35.7086C0.987672 34.9562 0.824825 34.1369 0.843773 33.3114C0.849218 32.1454 1.19157 31.0071 1.82777 30.0396C2.55513 28.9496 3.58257 28.1052 4.77974 27.6135C6.09173 27.0246 7.89572 26.7301 10.1917 26.7301C13.0026 26.7301 15.1461 27.2653 16.6221 28.3358C18.0981 29.4062 18.9763 31.1075 19.2567 33.4397L12.8608 33.8248C12.6968 32.8181 12.3393 32.0807 11.7882 31.6126C11.2372 31.1445 10.4836 30.9146 9.5275 30.923C8.73867 30.923 8.14417 31.0908 7.74402 31.4263C7.55578 31.5744 7.40363 31.7651 7.29949 31.9834C7.19535 32.2017 7.14206 32.4418 7.14378 32.6847C7.14939 32.8736 7.19653 33.0589 7.28171 33.2266C7.36688 33.3944 7.4879 33.5403 7.63578 33.6536C7.95558 33.9506 8.71571 34.2266 9.91618 34.4817C12.8878 35.136 15.0198 35.7987 16.3121 36.4699C17.6044 37.141 18.5392 37.9724 19.1165 38.964C19.7053 39.97 20.0093 41.1236 19.9947 42.2961C20.0021 43.7159 19.5952 45.1057 18.8262 46.2877C18.0261 47.5201 16.8879 48.4833 15.5545 49.0561C14.1523 49.6853 12.386 49.9998 10.2557 49.9998C6.51485 49.9998 3.92367 49.2633 2.48212 47.7902C1.04057 46.317 0.213198 44.4437 0 42.1703ZM40.0977 40.4061L46.0558 42.2483C45.7262 43.7947 45.0816 45.2525 44.164 46.5268C43.3279 47.6526 42.2281 48.545 40.9661 49.1215C39.6901 49.7037 38.0666 49.9948 36.0953 49.9948C33.7042 49.9948 31.751 49.64 30.2356 48.9302C28.7203 48.2205 27.4083 46.9697 26.2997 45.1778C25.1976 43.3875 24.6474 41.0965 24.649 38.3046C24.649 34.5832 25.6166 31.7216 27.5518 29.72C29.487 27.7183 32.2257 26.7184 35.7681 26.72C38.5413 26.72 40.7201 27.2939 42.3043 28.4415C43.8885 29.5891 45.066 31.3508 45.8368 33.7266L39.8345 35.0932C39.6935 34.5576 39.471 34.048 39.1752 33.5832C38.8116 33.0668 38.3336 32.6459 37.7804 32.355C37.207 32.0627 36.5735 31.9152 35.9329 31.9247C34.393 31.9247 33.213 32.5589 32.393 33.8273C31.7698 34.7686 31.459 36.2459 31.4607 38.2593C31.4607 40.7525 31.8313 42.4622 32.5726 43.3884C33.3139 44.3145 34.3544 44.7768 35.6943 44.7751C36.9932 44.7751 37.9772 44.4018 38.6463 43.6552C39.3154 42.9085 39.7992 41.8255 40.0977 40.4061V40.4061ZM51.293 27.1101H58.09V34.9825H65.5191V27.1101H72.3456V49.6173H65.5191V40.5193H58.09V49.6249H51.293V27.1101ZM76.5767 38.3776C76.5767 34.7065 77.5771 31.8458 79.5779 29.7955C81.5787 27.7452 84.3667 26.7217 87.9418 26.7251C91.6023 26.7251 94.4231 27.7318 96.4042 29.7452C98.3853 31.7585 99.3783 34.5748 99.3832 38.1938C99.3832 40.8263 98.9503 42.984 98.0843 44.6669C97.2417 46.3276 95.936 47.6949 94.3329 48.5955C92.6929 49.5317 90.6544 49.9998 88.2174 49.9998C85.7377 49.9998 83.6877 49.5955 82.0674 48.7868C80.4027 47.9428 79.0252 46.6053 78.1142 44.9488C77.0876 43.2005 76.5751 41.0101 76.5767 38.3776V38.3776ZM83.3737 38.4103C83.3737 40.6837 83.7837 42.3163 84.6036 43.3078C85.4236 44.2994 86.547 44.7952 87.9738 44.7952C89.435 44.7952 90.5658 44.3095 91.3661 43.338C92.1664 42.3666 92.5666 40.6216 92.5666 38.1032C92.5666 35.9841 92.1484 34.4355 91.312 33.4573C90.4756 32.4792 89.3424 31.9909 87.9123 31.9926C87.2905 31.9697 86.6717 32.0909 86.1022 32.3472C85.5326 32.6035 85.0271 32.9881 84.6233 33.4724C83.7919 34.4791 83.3753 36.1251 83.3737 38.4103V38.4103Z" fill="black"/>
<path d="M96.5001 38.3776C96.5001 34.7065 97.5005 31.8458 99.5013 29.7955C101.502 27.7452 104.29 26.7218 107.865 26.7251C111.529 26.7251 114.351 27.7318 116.33 29.7452C118.309 31.7586 119.299 34.5756 119.299 38.1964C119.299 40.8289 118.867 42.9866 118.003 44.6694C117.159 46.3296 115.854 47.6967 114.251 48.5981C112.611 49.5343 110.573 50.0024 108.136 50.0024C105.655 50.0024 103.605 49.598 101.986 48.7893C100.321 47.9447 98.9428 46.6075 98.0302 44.9513C97.0102 43.2013 96.5001 41.0101 96.5001 38.3776ZM103.3 38.4103C103.3 40.6838 103.71 42.3163 104.53 43.3079C105.349 44.2995 106.475 44.7961 107.905 44.7978C109.366 44.7978 110.497 44.3121 111.297 43.3406C112.097 42.3691 112.497 40.6242 112.497 38.1058C112.497 35.9867 112.08 34.4381 111.245 33.4599C110.41 32.4817 109.277 31.9935 107.846 31.9952C107.223 31.9706 106.603 32.0908 106.032 32.3467C105.461 32.6026 104.954 32.9875 104.549 33.4725C103.714 34.4792 103.298 36.1251 103.3 38.4103Z" fill="black"/>
<path d="M118.591 27.1104H125.39V44.0757H136V49.6125H118.591V27.1104Z" fill="black"/>
</svg>

